name ./resultDataOpenSim/trcMotMarkerGrf/sub06/grf-13-05.mot
datacolumns 19
datarows 25
range 0.49200000 0.58800000
endheader

                time	     ground_force_vx	     ground_force_vy	     ground_force_vz	     ground_force_px	     ground_force_py	     ground_force_pz	   l_ground_force_vx	   l_ground_force_vy	   l_ground_force_vz	   l_ground_force_px	   l_ground_force_py	   l_ground_force_pz	     ground_torque_x	     ground_torque_y	     ground_torque_z	   l_ground_torque_x	   l_ground_torque_y	   l_ground_torque_z	
          0.49200000	        136.52456353	        709.64243547	        -39.30420686	         -0.76567306	          0.00000000	          0.10891627	          0.00000000	          0.00000000	          0.00000000	          0.00000000	          0.00000000	          0.00000000	          0.00000000	          0.61047088	          0.00000000	          0.00000000	          0.00000000	          0.00000000	
          0.49600000	        143.73836440	        723.32204691	        -40.10467487	         -0.76529688	          0.00000000	          0.10886544	          0.00000000	          0.00000000	          0.00000000	          0.00000000	          0.00000000	          0.00000000	          0.00000000	          0.66800443	          0.00000000	          0.00000000	          0.00000000	          0.00000000	
          0.50000000	        151.30414888	        735.77604678	        -40.85394744	         -0.76488427	          0.00000000	          0.10883772	          0.00000000	          0.00000000	          0.00000000	          0.00000000	          0.00000000	          0.00000000	          0.00000000	          0.71418593	          0.00000000	          0.00000000	          0.00000000	          0.00000000	
          0.50400000	        159.19123569	        747.19048935	        -41.50083183	         -0.76453613	          0.00000000	          0.10876969	          0.00000000	          0.00000000	          0.00000000	          0.00000000	          0.00000000	          0.00000000	          0.00000000	          0.75524790	          0.00000000	          0.00000000	          0.00000000	          0.00000000	
          0.50800000	        167.29307592	        757.48590115	        -42.00817225	         -0.76425105	          0.00000000	          0.10865002	          0.00000000	          0.00000000	          0.00000000	          0.00000000	          0.00000000	          0.00000000	          0.00000000	          0.79620070	          0.00000000	          0.00000000	          0.00000000	          0.00000000	
          0.51200000	        175.44863972	        766.33917573	        -42.36334671	         -0.76393271	          0.00000000	          0.10851749	          0.00000000	          0.00000000	          0.00000000	          0.00000000	          0.00000000	          0.00000000	          0.00000000	          0.83882351	          0.00000000	          0.00000000	          0.00000000	          0.00000000	
          0.51600000	        183.51572996	        773.41088644	        -42.58994308	         -0.76350243	          0.00000000	          0.10841288	          0.00000000	          0.00000000	          0.00000000	          0.00000000	          0.00000000	          0.00000000	          0.00000000	          0.88097874	          0.00000000	          0.00000000	          0.00000000	          0.00000000	
          0.52000000	        191.41136625	        778.54514495	        -42.73493257	         -0.76298168	          0.00000000	          0.10832904	          0.00000000	          0.00000000	          0.00000000	          0.00000000	          0.00000000	          0.00000000	          0.00000000	          0.91722996	          0.00000000	          0.00000000	          0.00000000	          0.00000000	
          0.52400000	        199.09989188	        781.74410164	        -42.83971851	         -0.76245007	          0.00000000	          0.10822508	          0.00000000	          0.00000000	          0.00000000	          0.00000000	          0.00000000	          0.00000000	          0.00000000	          0.94031820	          0.00000000	          0.00000000	          0.00000000	          0.00000000	
          0.52800000	        206.55185699	        782.98362540	        -42.93447487	         -0.76194926	          0.00000000	          0.10808446	          0.00000000	          0.00000000	          0.00000000	          0.00000000	          0.00000000	          0.00000000	          0.00000000	          0.94301937	          0.00000000	          0.00000000	          0.00000000	          0.00000000	
          0.53200000	        213.70817872	        782.11555624	        -43.04193353	         -0.76144303	          0.00000000	          0.10793136	          0.00000000	          0.00000000	          0.00000000	          0.00000000	          0.00000000	          0.00000000	          0.00000000	          0.91999098	          0.00000000	          0.00000000	          0.00000000	          0.00000000	
          0.53600000	        220.48860180	        778.95946191	        -43.15805995	         -0.76087382	          0.00000000	          0.10779581	          0.00000000	          0.00000000	          0.00000000	          0.00000000	          0.00000000	          0.00000000	          0.00000000	          0.86912361	          0.00000000	          0.00000000	          0.00000000	          0.00000000	
          0.54000000	        226.83332872	        773.45037790	        -43.22892381	         -0.76023640	          0.00000000	          0.10767744	          0.00000000	          0.00000000	          0.00000000	          0.00000000	          0.00000000	          0.00000000	          0.00000000	          0.79183690	          0.00000000	          0.00000000	          0.00000000	          0.00000000	
          0.54400000	        232.72279387	        765.66847791	        -43.15582461	         -0.75959922	          0.00000000	          0.10754759	          0.00000000	          0.00000000	          0.00000000	          0.00000000	          0.00000000	          0.00000000	          0.00000000	          0.69207613	          0.00000000	          0.00000000	          0.00000000	          0.00000000	
          0.54800000	        238.15885371	        755.71451527	        -42.82526081	         -0.75904456	          0.00000000	          0.10738257	          0.00000000	          0.00000000	          0.00000000	          0.00000000	          0.00000000	          0.00000000	          0.00000000	          0.57444781	          0.00000000	          0.00000000	          0.00000000	          0.00000000	
          0.55200000	        243.14650572	        743.54303694	        -42.14318288	         -0.75859121	          0.00000000	          0.10719760	          0.00000000	          0.00000000	          0.00000000	          0.00000000	          0.00000000	          0.00000000	          0.00000000	          0.44249874	          0.00000000	          0.00000000	          0.00000000	          0.00000000	
          0.55600000	        247.69050229	        728.93556450	        -41.06237449	         -0.75817605	          0.00000000	          0.10704903	          0.00000000	          0.00000000	          0.00000000	          0.00000000	          0.00000000	          0.00000000	          0.00000000	          0.29804296	          0.00000000	          0.00000000	          0.00000000	          0.00000000	
          0.56000000	        251.77719463	        711.70605500	        -39.58604320	         -0.75772016	          0.00000000	          0.10698783	          0.00000000	          0.00000000	          0.00000000	          0.00000000	          0.00000000	          0.00000000	          0.00000000	          0.14160084	          0.00000000	          0.00000000	          0.00000000	          0.00000000	
          0.56400000	        255.35687964	        691.94037014	        -37.73483154	         -0.75724058	          0.00000000	          0.10699351	          0.00000000	          0.00000000	          0.00000000	          0.00000000	          0.00000000	          0.00000000	          0.00000000	         -0.02688215	          0.00000000	          0.00000000	          0.00000000	          0.00000000	
          0.56800000	        258.36512430	        669.90927647	        -35.51385361	         -0.75689467	          0.00000000	          0.10697152	          0.00000000	          0.00000000	          0.00000000	          0.00000000	          0.00000000	          0.00000000	          0.00000000	         -0.20783862	          0.00000000	          0.00000000	          0.00000000	          0.00000000	
          0.57200000	        260.72440978	        645.64435945	        -32.92427885	         -0.75686230	          0.00000000	          0.10685301	          0.00000000	          0.00000000	          0.00000000	          0.00000000	          0.00000000	          0.00000000	          0.00000000	         -0.40212153	          0.00000000	          0.00000000	          0.00000000	          0.00000000	
          0.57600000	        262.25314414	        618.66888333	        -29.99272291	         -0.75715019	          0.00000000	          0.10668817	          0.00000000	          0.00000000	          0.00000000	          0.00000000	          0.00000000	          0.00000000	          0.00000000	         -0.61011559	          0.00000000	          0.00000000	          0.00000000	          0.00000000	
          0.58000000	        262.56727674	        588.28019129	        -26.76836411	         -0.75755217	          0.00000000	          0.10660442	          0.00000000	          0.00000000	          0.00000000	          0.00000000	          0.00000000	          0.00000000	          0.00000000	         -0.82934716	          0.00000000	          0.00000000	          0.00000000	          0.00000000	
          0.58400000	        261.12446314	        554.13340921	        -23.29421475	         -0.75787058	          0.00000000	          0.10667577	          0.00000000	          0.00000000	          0.00000000	          0.00000000	          0.00000000	          0.00000000	          0.00000000	         -1.05162184	          0.00000000	          0.00000000	          0.00000000	          0.00000000	
          0.58800000	        257.37844862	        516.51324801	        -19.59049868	         -0.75814236	          0.00000000	          0.10685434	          0.00000000	          0.00000000	          0.00000000	          0.00000000	          0.00000000	          0.00000000	          0.00000000	         -1.26148909	          0.00000000	          0.00000000	          0.00000000	          0.00000000	
